<?xml version="1.0" standalone="no"?>
<!DOCTYPE svg PUBLIC "-//W3C//DTD SVG 20010904//EN"
 "http://www.w3.org/TR/2001/REC-SVG-20010904/DTD/svg10.dtd">
<svg version="1.0" xmlns="http://www.w3.org/2000/svg"
 width="266.000000pt" height="266.000000pt" viewBox="0 0 266.000000 266.000000"
 preserveAspectRatio="xMidYMid meet">
<metadata>
Created by potrace 1.11, written by Peter Selinger 2001-2013
</metadata>
<g transform="translate(0.000000,266.000000) scale(0.100000,-0.100000)"
fill="#000000" stroke="none">
<path d="M1200 2649 c-403 -51 -739 -260 -952 -594 -74 -116 -155 -302 -174
-405 -3 -14 -9 -44 -14 -67 -24 -107 -32 -334 -16 -448 26 -181 108 -400 206
-546 254 -380 658 -593 1106 -584 143 3 168 7 300 40 166 42 385 153 467 237
17 18 57 56 87 83 220 199 367 486 407 790 14 103 8 314 -11 405 -3 14 -13 59
-21 100 -34 162 -82 274 -182 423 -114 173 -309 345 -492 436 -117 59 -282
110 -401 126 -75 10 -243 12 -310 4z m235 -144 c65 -5 114 -13 190 -30 58 -12
231 -85 290 -122 204 -126 362 -296 464 -501 36 -72 88 -220 97 -278 3 -21 7
-41 9 -45 8 -11 19 -157 18 -227 -2 -76 -7 -131 -23 -210 -16 -78 -17 -85 -40
-152 -100 -291 -315 -537 -592 -674 -53 -26 -102 -48 -110 -50 -7 -1 -17 -4
-23 -8 -5 -3 -48 -15 -95 -26 -660 -161 -1294 249 -1436 928 -25 123 -24 343
4 471 76 352 306 647 632 811 73 37 197 82 256 92 16 3 40 8 54 11 14 3 66 8
115 11 50 4 92 8 93 10 2 1 9 1 15 -1 7 -2 44 -6 82 -10z"/>
<path d="M1243 2306 c-27 -20 -46 -76 -37 -110 15 -60 97 -85 146 -46 l25 19
141 -50 c132 -48 140 -52 146 -80 19 -94 150 -100 177 -8 28 93 -78 166 -147
100 -17 -16 -25 -14 -151 30 -155 56 -153 55 -153 79 0 56 -99 100 -147 66z"/>
<path d="M1029 2167 c-24 -13 -102 -57 -174 -98 -71 -42 -152 -88 -180 -103
-152 -84 -264 -213 -316 -363 -29 -86 -34 -117 -33 -238 1 -92 5 -123 28 -190
96 -280 337 -449 629 -440 147 4 203 28 610 264 192 110 351 201 353 201 13 0
45 39 54 66 13 37 2 72 -31 103 -43 40 -70 30 -340 -125 -140 -80 -279 -160
-309 -177 -30 -16 -71 -40 -90 -52 -53 -33 -140 -71 -182 -79 -39 -7 -132 -9
-158 -3 -8 2 -31 7 -50 11 -107 25 -222 121 -275 229 -42 85 -55 149 -50 238
7 112 61 227 144 306 20 19 139 93 264 166 126 73 233 139 237 148 17 31 19
72 4 100 -8 16 -16 29 -18 29 -2 0 -19 7 -39 15 -32 13 -38 13 -78 -8z"/>
<path d="M1445 1986 c-44 -25 -87 -50 -95 -56 -8 -5 -31 -18 -50 -29 -127 -69
-529 -306 -546 -322 -45 -42 -78 -120 -81 -191 -2 -57 2 -75 28 -127 62 -123
187 -181 311 -144 26 7 128 60 225 117 601 348 606 350 711 334 231 -36 332
-315 178 -494 -23 -27 -95 -75 -222 -149 -104 -59 -277 -160 -385 -222 -108
-62 -204 -122 -213 -132 -38 -42 -19 -129 32 -150 39 -16 71 -7 169 50 48 29
102 59 118 69 559 319 587 337 641 400 120 139 156 308 104 480 -44 147 -151
261 -303 321 -79 32 -221 34 -307 4 -55 -19 -315 -162 -613 -339 -43 -25 -80
-46 -83 -46 -2 0 -26 -14 -54 -31 -66 -41 -110 -35 -134 15 -19 40 -10 75 26
101 13 9 169 101 348 203 179 103 337 195 352 205 72 49 44 160 -43 173 -27 4
-50 -4 -114 -40z"/>
<path d="M744 628 c-27 -12 -51 -65 -46 -100 8 -64 90 -99 147 -62 22 14 30
13 119 -18 90 -31 96 -35 96 -60 0 -78 67 -124 135 -92 59 28 72 95 28 144
-32 34 -70 44 -104 26 -21 -11 -37 -8 -114 20 -125 45 -126 45 -119 55 3 5 -3
25 -12 45 -24 50 -78 68 -130 42z"/>
</g>
</svg>
